<svg width="29" height="30" viewBox="0 0 29 30" xmlns="http://www.w3.org/2000/svg">
<title>Alert Icon</title>
    <desc>Icon to mark when the bin is reporting an alert state</desc>
<path d="M25.5236 25.6552H3.36787C2.94077 25.6552 2.54612 25.4274 2.33258 25.0575C2.11904 24.6876 2.11904 24.2319 2.33259 23.862L13.4098 4.73447C13.6236 4.3652 14.0179 4.13782 14.4445 4.13782C14.8712 4.13782 15.2655 4.3652 15.4792 4.73447L26.5565 23.862C26.7699 24.2317 26.77 24.6872 26.5568 25.057C26.3435 25.4268 25.9493 25.6548 25.5224 25.6552H25.5236ZM14.4463 7.72315L5.44321 23.2643H23.4518L14.4463 7.72315ZM15.6358 18.4836H13.2449V12.505H15.6358V18.4836Z"/>
<path d="M13.2508 19.6803H15.6418V22.0712H13.2508V19.6803Z"/>
</svg>
