<svg id="svg" version="1.1" xmlns="http://www.w3.org/2000/svg" xmlns:xlink="http://www.w3.org/1999/xlink" width="400" height="357.8125" viewBox="0, 0, 400,357.8125"><g id="svgg"><path id="path0" d="M190.757 4.378 C 188.512 5.496,185.805 7.552,184.742 8.946 C 181.877 12.703,4.290 319.649,3.241 322.658 C -0.196 332.520,5.923 345.491,15.325 348.269 C 19.910 349.623,380.007 349.654,384.526 348.300 C 392.577 345.888,398.026 337.287,397.516 327.797 L 397.219 322.266 341.383 227.019 C 278.348 119.492,281.780 124.515,270.738 123.638 C 258.601 122.675,258.375 122.909,225.781 170.217 C 210.957 191.733,198.575 209.346,198.266 209.356 C 197.957 209.367,191.453 203.863,183.813 197.125 L 169.922 184.875 169.721 232.796 C 169.610 259.153,169.610 280.804,169.721 280.911 C 170.005 281.186,257.777 263.577,258.193 263.162 C 258.381 262.974,251.522 256.683,242.950 249.183 C 234.379 241.683,227.449 235.306,227.550 235.011 C 227.770 234.373,267.544 176.685,267.655 176.844 C 269.911 180.065,346.169 311.123,345.928 311.364 C 345.730 311.561,279.806 311.634,199.430 311.525 L 53.291 311.328 125.909 185.938 C 165.849 116.973,198.799 60.083,199.130 59.516 C 199.522 58.844,204.409 66.866,213.171 82.563 C 220.563 95.806,226.921 107.139,227.300 107.749 C 227.895 108.705,257.157 93.558,260.429 90.601 C 261.089 90.004,219.786 15.243,215.614 9.484 C 210.579 2.533,199.164 0.188,190.757 4.378 " stroke="none" fill-rule="evenodd"></path></g></svg>