<svg width="38" height="37" viewBox="0 0 38 37" fill="none" xmlns="http://www.w3.org/2000/svg">
<path d="M25.5176 13.1791L19.1245 2.09463C19.0835 2.02419 19.0257 2.09356 18.9792 2.16044L13.6055 11.4443M13.6055 11.4443L12.3073 13.3104M13.6055 11.4443L12.2286 10.5066L12.3073 13.3104M13.6055 11.4443L15.0035 12.4296L12.3073 13.3104M23.2049 31.5459L36.0009 31.5515C36.0824 31.5513 36.0513 31.4665 36.0166 31.3928L30.6634 22.0971M30.6634 22.0971L29.6964 20.0398M30.6634 22.0971L32.1639 21.3736L29.6964 20.0398M30.6634 22.0971L29.1111 22.8152L29.6964 20.0398M8.41951 20.3615L2.01662 31.4404C1.97609 31.5111 2.06508 31.5265 2.14626 31.5333L12.8732 31.5452M12.8732 31.5452L15.1383 31.7364M12.8732 31.5452L12.7495 33.2064L15.1383 31.7364M12.8732 31.5452L13.0275 29.8418L15.1383 31.7364" stroke-width="3.56398"/>
</svg>
