<svg id="svg" version="1.1" xmlns="http://www.w3.org/2000/svg" xmlns:xlink="http://www.w3.org/1999/xlink" width="400" height="389.84375000000006" viewBox="0, 0, 400,389.84375000000006"><g id="svgg"><path id="path0" d="M196.484 3.037 C 187.956 5.248,187.282 6.172,160.930 51.723 C 147.930 74.193,137.213 92.677,137.113 92.797 C 137.013 92.918,130.695 88.765,123.073 83.568 C 115.451 78.371,109.068 74.266,108.888 74.445 C 108.490 74.844,111.014 165.099,111.437 165.569 C 112.030 166.229,199.234 137.722,199.189 136.883 C 199.167 136.464,174.069 118.501,169.317 115.503 C 168.538 115.012,199.636 60.151,200.689 60.161 C 200.954 60.163,212.559 79.939,226.477 104.106 C 240.395 128.274,251.891 148.175,252.023 148.332 C 252.256 148.609,281.516 131.980,284.028 130.143 C 285.184 129.297,222.745 18.770,216.014 9.746 C 212.346 4.829,202.551 1.464,196.484 3.037 M298.819 183.779 C 297.755 188.109,279.934 273.067,280.055 273.233 C 280.130 273.336,287.779 269.908,297.053 265.616 C 306.327 261.324,314.212 257.818,314.575 257.825 C 314.938 257.832,322.353 270.224,331.054 285.364 L 346.874 312.891 295.312 313.092 L 243.750 313.292 243.750 331.912 L 243.750 350.532 261.914 351.045 C 285.248 351.705,376.770 351.718,381.554 351.063 C 394.491 349.289,402.168 335.214,396.695 323.302 C 395.643 321.013,384.678 301.620,372.328 280.207 C 359.977 258.793,350.057 241.089,350.282 240.864 C 350.508 240.638,357.126 237.335,364.990 233.523 C 372.853 229.711,379.372 226.322,379.475 225.992 C 379.632 225.491,358.555 213.914,306.896 186.123 C 299.418 182.100,299.244 182.050,298.819 183.779 M37.429 264.648 L 2.777 324.609 2.476 329.811 C 1.957 338.786,5.733 345.238,13.672 348.943 L 17.578 350.766 66.211 350.774 C 111.517 350.781,114.844 350.872,114.844 352.113 C 114.844 352.846,114.295 360.254,113.625 368.575 C 112.955 376.896,112.515 384.030,112.649 384.429 C 112.946 385.319,190.234 337.871,190.234 336.798 C 190.234 336.045,122.681 275.018,121.834 275.006 C 121.597 275.003,120.781 282.295,120.022 291.211 C 119.262 300.127,118.445 308.740,118.205 310.352 L 117.769 313.281 99.705 313.184 C 89.770 313.130,75.468 312.866,67.923 312.598 L 54.206 312.109 79.094 269.141 C 92.782 245.508,104.311 225.590,104.713 224.878 C 105.318 223.808,74.697 204.688,72.380 204.688 C 72.215 204.688,56.487 231.670,37.429 264.648 " stroke="none" fill-rule="evenodd"></path></g></svg>